#!OML:ASF Y:\EmotionMaleHayes\Project 1\Capture day 1\Session 1\Male1.ASF
:FULLY-SPECIFIED
:DEGREES
1
root -29.3029 17.1188 1.24019 22.1956 85.6005 22.9434
lowerback 5.67869 2.11028 -3.45347
upperback -0.656898 2.54227 -1.09055
thorax -3.96544 1.33027 0.57669
lowerneck -21.2987 2.58715 4.90273
upperneck 21.139 2.38411 -1.15725
head 10.3672 1.39434 -0.856857
rclavicle -2.33727e-014 8.34896e-015
rhumerus 0 0 0
rradius 0
rwrist 0
rhand 0 0
rfingers 0
rthumb 0 0
lclavicle -2.33727e-014 8.34896e-015
lhumerus -33.4301 -9.78199 92.3082
lradius 23.8396
lwrist -11.8241
lhand -11.0251 -24.3931
lfingers 7.12502
lthumb 14.9963 5.04385
rfemur 8.36168 -4.56083 11.3178
rtibia 2.89107
rfoot -15.6215 -2.82841
rtoes 0.634406
lfemur 12.3083 -0.841523 -17.1743
ltibia -2.43723
lfoot -12.2909 12.9001
ltoes -2.85424
2
root -29.3044 17.1127 1.24161 25.769 85.2887 26.5481
lowerback 5.74899 2.16328 -3.9744
upperback -0.662373 2.57278 -1.12924
thorax -4.03424 1.35789 0.821025
lowerneck -21.3533 2.63944 4.83329
upperneck 21.1944 2.47088 -1.13045
head 10.3988 1.43212 -0.822109
rclavicle -6.70898e-015 -1.11319e-014
rhumerus 0 0 0
rradius 0
rwrist 0
rhand 0 0
rfingers 0
rthumb 0 0
lclavicle -6.70898e-015 -1.11319e-014
lhumerus -33.4363 -9.59253 92.3175
lradius 23.7895
lwrist -11.8148
lhand -11.361 -24.6053
lfingers 7.12502
lthumb 14.6727 4.85551
rfemur 8.29227 -4.13397 10.9289
rtibia 2.94824
rfoot -15.7912 -3.0147
rtoes 0.458932
lfemur 12.2331 -0.239212 -17.4471
ltibia -2.26621
lfoot -11.8408 12.5779
ltoes -4.3429
3
root -29.3033 17.1121 1.24152 24.1257 85.4608 24.8518
lowerback 5.70447 2.10739 -3.7735
upperback -0.676253 2.51542 -1.06681
thorax -4.01464 1.3251 0.780535
lowerneck -21.3253 2.64625 4.87398
upperneck 21.1791 2.48448 -1.19367
head 10.3899 1.43376 -0.849617
rclavicle 8.09116e-015 -1.66979e-014
rhumerus 0 0 0
rradius 0
rwrist 0
rhand 0 0
rfingers 0
rthumb 0 0
lclavicle 8.09116e-015 -1.66979e-014
lhumerus -33.4259 -9.46397 92.2797
lradius 23.7563
lwrist -11.8738
lhand -11.4053 -24.6486
lfingers 7.12502
lthumb 14.63 4.81529
rfemur 8.27067 -4.28534 11.1706
rtibia 2.95751
rfoot -15.8008 -2.93191
rtoes 0.233683
lfemur 12.1565 -0.0504053 -17.1319
ltibia -2.22862
lfoot -11.5801 12.3804
ltoes -5.80037
4
root -29.2996 17.1157 1.23694 26.0722 85.516 26.9719
lowerback 5.83566 2.06758 -3.88351
upperback -0.617454 2.45018 -1.06783
thorax -4.02944 1.29484 0.843582
lowerneck -21.2727 2.64495 5.02612
upperneck 21.1331 2.50454 -1.46912
head 10.3699 1.42073 -0.97064
rclavicle -1.7462e-014 1.0138e-014
rhumerus 0 0 0
rradius 0
rwrist 0
rhand 0 0
rfingers 0
rthumb 0 0
lclavicle -1.7462e-014 1.0138e-014
lhumerus -33.3627 -9.393 92.3138
lradius 23.6987
lwrist -11.9138
lhand -11.264 -24.5376
lfingers 7.12502
lthumb 14.7661 4.91636
rfemur 8.55993 -4.38506 10.9217
rtibia 2.84504
rfoot -15.727 -2.88883
rtoes 0.319428
lfemur 12.3784 -0.393358 -17.4176
ltibia -2.34748
lfoot -11.6826 12.6086
ltoes -5.42876
5
root -29.296 17.113 1.24202 24.5079 85.3231 25.358
lowerback 5.70628 2.14671 -3.96594
upperback -0.607664 2.55813 -1.01867
thorax -3.95733 1.3495 0.935077
lowerneck -21.3352 2.64947 5.07822
upperneck 21.1545 2.51767 -1.57969
head 10.3918 1.41691 -1.01629
rclavicle -1.70551e-014 6.55989e-015
rhumerus 0 0 0
rradius 0
rwrist 0
rhand 0 0
rfingers 0
rthumb 0 0
lclavicle -1.70551e-014 6.55989e-015
lhumerus -33.3608 -9.27658 92.3036
lradius 23.3651
lwrist -12.8075
lhand -12.4348 -25.0445
lfingers 7.12502
lthumb 13.638 4.48872
rfemur 8.47831 -4.19524 11.0512
rtibia 2.83132
rfoot -15.68 -2.88555
rtoes 0.395863
lfemur 12.4513 -0.210888 -17.3428
ltibia -2.47662
lfoot -11.8874 12.6078
ltoes -4.30452
6
root -29.298 17.1105 1.24114 25.7629 85.3116 26.5819
lowerback 5.69816 2.16536 -3.96348
upperback -0.607364 2.58121 -1.11366
thorax -3.94898 1.36025 0.833728
lowerneck -21.3875 2.61961 5.0798
upperneck 21.1289 2.44232 -1.4677
head 10.3882 1.39554 -0.987542
rclavicle 1.13928e-014 -1.35174e-014
rhumerus -35.8166 7.25016 -93.8191
rradius 29.4557
rwrist 5.28509
rhand -10.3161 -31.9274
rfingers 7.12502
rthumb 15.6793 -61.3121
lclavicle 1.13928e-014 -1.35174e-014
lhumerus -33.4708 -9.55907 92.2999
lradius 22.6222
lwrist -15.0967
lhand -16.0772 -26.5855
lfingers 7.12502
lthumb 10.1257 3.15089
rfemur 8.44187 -3.90791 11.0105
rtibia 2.78866
rfoot -15.7187 -3.14985
rtoes 0.642806
lfemur 12.3864 -0.440761 -17.513
ltibia -2.48653
lfoot -12.0041 12.8072
ltoes -3.43748
7
root -29.2977 17.1085 1.24404 25.9759 85.242 26.7838
lowerback 5.658 2.21978 -3.9183
upperback -0.597778 2.65683 -1.21236
thorax -3.91297 1.39569 0.701349
lowerneck -21.2652 2.58535 5.21219
upperneck 20.9792 2.37169 -1.53201
head 10.3117 1.36458 -1.04401
rclavicle 1.68563e-014 -3.02153e-014
rhumerus -35.7986 7.1111 -93.8975
rradius 29.5406
rwrist 5.12279
rhand -10.2936 -31.9686
rfingers 7.12502
rthumb 15.7009 -61.3516
lclavicle 1.68563e-014 -3.02153e-014
lhumerus -33.3577 -9.92321 92.3289
lradius 23.4064
lwrist -12.4764
lhand -12.9415 -24.5528
lfingers 7.12502
lthumb 13.1495 5.01261
rfemur 8.43462 -3.72943 11.0347
rtibia 2.76263
rfoot -15.7135 -3.22007
rtoes 0.867699
lfemur 12.3703 -0.243988 -17.4916
ltibia -2.46547
lfoot -11.9084 12.7185
ltoes -3.67515
8
root -29.2978 17.1095 1.24342 26.9245 85.3102 27.7971
lowerback 5.71319 2.19435 -3.90459
upperback -0.572448 2.62112 -1.24627
thorax -3.91394 1.37727 0.66056
lowerneck -21.1666 2.57271 5.28876
upperneck 20.8731 2.35495 -1.61895
head 10.2567 1.35137 -1.09088
rclavicle 2.00027e-015 -1.59028e-015
rhumerus -35.7871 7.02089 -93.8743
rradius 29.4782
rwrist 5.34772
rhand -10.0652 -32.1399
rfingers 7.12502
rthumb 15.9209 -61.5055
lclavicle 2.00027e-015 -1.59028e-015
lhumerus -33.3168 -9.94969 92.318
lradius 23.6797
lwrist -11.7003
lhand -11.8884 -23.9093
lfingers 7.12502
lthumb 14.1646 5.58786
rfemur 8.55712 -3.80933 10.9361
rtibia 2.70794
rfoot -15.6978 -3.25322
rtoes 0.674674
lfemur 12.4005 -0.30001 -17.538
ltibia -2.39751
lfoot -11.9903 12.6757
ltoes -3.87311
9
root -29.3006 17.1093 1.24392 26.9567 85.4655 27.7921
lowerback 5.74115 2.13863 -3.87524
upperback -0.600919 2.54791 -1.1839
thorax -3.95769 1.34143 0.713723
lowerneck -21.229 2.58227 5.20085
upperneck 20.9542 2.38002 -1.55972
head 10.2964 1.36391 -1.05107
rclavicle 1.44647e-014 -2.38542e-015
rhumerus -35.8202 7.08753 -93.8162
rradius 29.4756
rwrist 5.48414
rhand -9.8325 -32.4301
rfingers 7.12502
rthumb 16.1449 -61.7777
lclavicle 1.44647e-014 -2.38542e-015
lhumerus -33.2917 -9.62334 92.2563
lradius 23.588
lwrist -11.9875
lhand -11.9321 -24.0342
lfingers 7.12502
lthumb 14.1224 5.46586
rfemur 8.55423 -3.91646 11.0096
rtibia 2.6722
rfoot -15.7154 -3.37951
rtoes 0.205982
lfemur 12.2917 -0.343129 -17.4159
ltibia -2.30748
lfoot -12.1372 12.5014
ltoes -3.18247
10
root -29.3 17.1096 1.24335 27.8238 85.4889 28.723
lowerback 5.84217 2.11595 -4.0553
upperback -0.607788 2.50201 -1.09643
thorax -4.03188 1.32423 0.904677
lowerneck -21.2915 2.61749 5.1143
upperneck 21.0678 2.46013 -1.57386
head 10.3508 1.3932 -1.02927
rclavicle 7.05064e-015 -5.56597e-015
rhumerus -35.8785 7.29367 -93.7495
rradius 29.5245
rwrist 5.23684
rhand -9.91703 -32.4267
rfingers 7.12502
rthumb 16.0635 -61.7809
lclavicle 7.05064e-015 -5.56597e-015
lhumerus -33.4248 -9.71019 92.4466
lradius 23.4154
lwrist -12.473
lhand -13.0541 -24.6423
lfingers 7.12502
lthumb 13.041 4.93005
rfemur 8.65008 -3.83344 10.9594
rtibia 2.63436
rfoot -15.7613 -3.54893
rtoes 0.124031
lfemur 12.366 -0.505281 -17.5374
ltibia -2.34891
lfoot -12.0697 12.617
ltoes -3.59548
